<svg xmlns="http://www.w3.org/2000/svg" width="128" height="24" viewBox="0 0 128 24">
    <style>
        text { fill: black; }
        @media(prefers-color-scheme: dark) {
            text { fill: white; }
        }
    </style>
    <filter id='color-shadow' color-interpolation-filters="sRGB" x="-50%" y="-50%" width="200%" height="200%">
        <feOffset dx="0" dy="0"/>
        <feGaussianBlur in="SourceGraphic" stdDeviation="2.0"/>
        <feMerge>
            <feMergeNode in="shadow"/>
            <feMergeNode in="SourceGraphic"/>
        </feMerge>
    </filter>

    <svg width="16" height="16" viewBox="0 0 16 16" x="4" y="4" filter="url(#color-shadow)">
        <path fill="#66ccff" d="M0 8a8 8 0 1 1 16 0A8 8 0 0 1 0 8Zm8-6.5a6.5 6.5 0 1 0 0 13 6.5 6.5 0 0 0 0-13ZM6.5 7.75A.75.75 0 0 1 7.25 7h1a.75.75 0 0 1 .75.75v2.75h.25a.75.75 0 0 1 0 1.5h-2a.75.75 0 0 1 0-1.5h.25v-2h-.25a.75.75 0 0 1-.75-.75ZM8 6a1 1 0 1 1 0-2 1 1 0 0 1 0 2Z"/>
    </svg>
    <text x="26" y="17.5" font-family="Arial, sans-serif">Description</text>
</svg>