<svg xmlns="http://www.w3.org/2000/svg" width="128" height="24" viewBox="0 0 128 24">
    <style>
        text {
            fill: black;
            font-family: -apple-system,BlinkMacSystemFont,"Segoe UI","Noto Sans",Helvetica,Arial,sans-serif,"Apple Color Emoji","Segoe UI Emoji";
        }
        @media(prefers-color-scheme: dark) {
            text { fill: white; }
        }
    </style>
    <filter id='color-shadow' color-interpolation-filters="sRGB" x="-50%" y="-50%" width="200%" height="200%">
        <feOffset dx="0" dy="0"/>
        <feGaussianBlur in="SourceGraphic" stdDeviation="2.0"/>
        <feMerge>
            <feMergeNode in="shadow"/>
            <feMergeNode in="SourceGraphic"/>
        </feMerge>
    </filter>

    <svg width="16" height="16" viewBox="0 0 16 16" x="4" y="4" filter="url(#color-shadow)">
        <path fill="#ff6666" d="M15 2.75a.75.75 0 0 1-.75.75h-4a.75.75 0 0 1 0-1.5h4a.75.75 0 0 1 .75.75Zm-8.5.75v1.25a.75.75 0 0 0 1.5 0v-4a.75.75 0 0 0-1.5 0V2H1.75a.75.75 0 0 0 0 1.5H6.5Zm1.25 5.25a.75.75 0 0 0 0-1.5h-6a.75.75 0 0 0 0 1.5h6ZM15 8a.75.75 0 0 1-.75.75H11.5V10a.75.75 0 1 1-1.5 0V6a.75.75 0 0 1 1.5 0v1.25h2.75A.75.75 0 0 1 15 8Zm-9 5.25v-2a.75.75 0 0 0-1.5 0v1.25H1.75a.75.75 0 0 0 0 1.5H4.5v1.25a.75.75 0 0 0 1.5 0v-2Zm9 0a.75.75 0 0 1-.75.75h-6a.75.75 0 0 1 0-1.5h6a.75.75 0 0 1 .75.75Z"/>
    </svg>
    <text x="26" y="17.5">Parameters</text>
</svg>