<svg xmlns="http://www.w3.org/2000/svg" width="46" height="16" viewBox="0 0 46 16">
    <style>
        text {
            fill: black;
            font-family: -apple-system,BlinkMacSystemFont,"Segoe UI","Noto Sans",Helvetica,Arial,sans-serif,"Apple Color Emoji","Segoe UI Emoji";
        }
        @media(prefers-color-scheme: dark) {
            text { fill: white; }
        }
    </style>
    <path fill="#ed333b" d="M0 8a8 8 0 1 1 16 0A8 8 0 0 1 0 8Zm1.5 0a6.5 6.5 0 1 0 13 0 6.5 6.5 0 0 0-13 0Zm10.28-1.72-4.5 4.5a.75.75 0 0 1-1.06 0l-2-2a.751.751 0 0 1 .018-1.042.751.751 0 0 1 1.042-.018l1.47 1.47 3.97-3.97a.751.751 0 0 1 1.042.018.751.751 0 0 1 .018 1.042Z"/>
    <text x="20" y="12" font-size="16">yes</text>
</svg>